<?xml version="1.0" encoding="iso-8859-1"?>
<!-- Generator: Adobe Illustrator 22.0.1, SVG Export Plug-In . SVG Version: 6.00 Build 0)  -->
<svg version="1.1" xmlns="http://www.w3.org/2000/svg" xmlns:xlink="http://www.w3.org/1999/xlink" x="0px" y="0px"
	 viewBox="0 0 512 512" style="enable-background:new 0 0 512 512;" xml:space="preserve">
<g id="BULINE">
	<circle id="XMLID_3387_" style="fill:#F9BD38;" cx="256" cy="256" r="256"/>
</g>
<g id="Icons">
	<g id="XMLID_840_">
		<g id="XMLID_2194_">
			<path id="XMLID_2195_" style="fill:#F78F8B;" d="M259.297,293.843h-15c0-27.294,22.206-49.5,49.5-49.5H393.82
				c26.624,0,48.284-21.66,48.284-48.284v-3.728c0-26.624-21.66-48.284-48.284-48.284v-15c34.895,0,63.284,28.389,63.284,63.284
				v3.728c0,34.895-28.39,63.284-63.284,63.284H293.797C274.774,259.343,259.297,274.82,259.297,293.843z"/>
		</g>
		<g id="XMLID_885_">
			<path id="XMLID_2193_" style="fill:#FFFFFF;" d="M384.545,300.174c-11.358-29.438-44.43-44.095-73.868-32.736
				c-7.032,2.713-13.218,6.666-18.408,11.512c-8.13,7.59-18.954,11.625-30.076,11.625h-20.792c-11.122,0-21.946-4.035-30.076-11.625
				c-5.19-4.846-11.377-8.799-18.408-11.512c-29.438-11.358-62.51,3.298-73.868,32.736c-11.358,29.438-27.782,143.063,1.656,154.421
				c14.532,5.607,37.52-14.755,58.443-40.354c10.378-12.698,25.974-19.982,42.374-19.982h60.55c16.399,0,31.995,7.284,42.374,19.982
				c20.923,25.599,43.911,45.961,58.443,40.354C412.327,443.237,395.903,329.612,384.545,300.174z"/>
			<circle id="XMLID_2192_" style="fill:#BABABA;" cx="171.573" cy="335.302" r="52.381"/>
			<circle id="XMLID_2191_" style="fill:#BABABA;" cx="332.021" cy="335.302" r="52.381"/>
			<circle id="XMLID_2190_" style="fill:#BABABA;" cx="251.797" cy="319.67" r="17.531"/>
			<circle id="XMLID_2189_" style="fill:#FFFFFF;" cx="251.797" cy="319.67" r="11.534"/>
			<path id="XMLID_2188_" style="fill:#4F4F74;" d="M203.591,321.692h-10.035c-3.576,0-6.474-2.899-6.474-6.474v-10.035
				c0-3.576-2.899-6.474-6.474-6.474h-18.068c-3.576,0-6.474,2.899-6.474,6.474v10.035c0,3.576-2.899,6.474-6.474,6.474h-10.035
				c-3.576,0-6.474,2.899-6.474,6.474v18.068c0,3.576,2.899,6.474,6.474,6.474h10.035c3.576,0,6.474,2.899,6.474,6.474v10.035
				c0,3.576,2.899,6.474,6.474,6.474h18.068c3.576,0,6.474-2.899,6.474-6.474v-10.035c0-3.576,2.899-6.474,6.474-6.474h10.035
				c3.576,0,6.474-2.899,6.474-6.474v-18.068C210.065,324.591,207.166,321.692,203.591,321.692z"/>
			<path id="XMLID_2187_" style="fill:#666691;" d="M191.655,327.474h-6.294c-2.243,0-4.061-1.818-4.061-4.061v-6.294
				c0-2.243-1.818-4.061-4.061-4.061h-11.332c-2.243,0-4.061,1.818-4.061,4.061v6.294c0,2.243-1.818,4.061-4.061,4.061h-6.294
				c-2.243,0-4.061,1.818-4.061,4.061v11.332c0,2.243,1.818,4.061,4.061,4.061h6.294c2.243,0,4.061,1.818,4.061,4.061v6.294
				c0,2.243,1.818,4.061,4.061,4.061h11.332c2.243,0,4.061-1.818,4.061-4.061v-6.294c0-2.243,1.818-4.061,4.061-4.061h6.294
				c2.243,0,4.061-1.818,4.061-4.061v-11.332C195.715,329.292,193.897,327.474,191.655,327.474z"/>
			<circle id="XMLID_2186_" style="fill:#F8D572;" cx="331.659" cy="302.648" r="16.393"/>
			<circle id="XMLID_2185_" style="fill:#F9BD38;" cx="331.659" cy="302.648" r="13.594"/>
			<path id="XMLID_2184_" style="fill:#E2C06D;" d="M324.796,302.648c0,5.658,2.865,10.646,7.225,13.59
				c0.448,0.304,0.912,0.586,1.391,0.844c0.952,0.514,1.959,0.936,3.013,1.253c-1.507,0.46-3.109,0.706-4.766,0.706
				c-9.054,0-16.393-7.339-16.393-16.393c0-0.142,0.002-0.282,0.006-0.424c0.002-0.092,0.004-0.186,0.01-0.278
				c0-0.014,0-0.028,0.002-0.044c0.002-0.062,0.006-0.126,0.01-0.188c0.482-8.62,7.627-15.46,16.365-15.46
				c1.657,0,3.259,0.246,4.766,0.706c-1.583,0.478-3.065,1.191-4.404,2.097C327.661,292.003,324.796,296.991,324.796,302.648z"/>
			<path id="XMLID_2183_" style="fill:#DDA636;" d="M332.021,316.238c-0.12,0.002-0.242,0.004-0.362,0.004
				c-7.507,0-13.594-6.085-13.594-13.594c0-7.507,6.087-13.594,13.594-13.594c0.12,0,0.242,0.002,0.362,0.004
				c-4.36,2.945-7.225,7.933-7.225,13.59S327.661,313.294,332.021,316.238z"/>
			<g id="XMLID_2178_">
				<circle id="XMLID_2182_" style="fill:#3588CD;" cx="303.639" cy="334.701" r="16.393"/>
				<path id="XMLID_2181_" style="fill:#3385BC;" d="M296.776,334.701c0,5.658,2.865,10.646,7.225,13.59
					c0.448,0.304,0.912,0.586,1.391,0.844c0.952,0.514,1.959,0.936,3.013,1.253c-1.507,0.46-3.109,0.706-4.766,0.706
					c-9.054,0-16.393-7.339-16.393-16.393c0-0.142,0.002-0.282,0.006-0.424c0.002-0.092,0.004-0.186,0.01-0.278
					c0-0.014,0-0.028,0.002-0.044c0.002-0.062,0.006-0.126,0.01-0.188c0.482-8.62,7.627-15.46,16.365-15.46
					c1.657,0,3.259,0.246,4.766,0.706c-1.583,0.478-3.065,1.191-4.404,2.097C299.641,324.056,296.776,329.044,296.776,334.701z"/>
				<circle id="XMLID_2180_" style="fill:#366FCC;" cx="303.639" cy="334.701" r="13.594"/>
				<path id="XMLID_2179_" style="fill:#3268B7;" d="M308.864,347.586c-1.355,0.461-2.811,0.708-4.327,0.708
					c-7.505,0-13.595-6.083-13.595-13.595c0-7.505,6.09-13.595,13.595-13.595c1.516,0,2.971,0.247,4.327,0.708
					c-5.388,1.803-9.268,6.897-9.268,12.887C299.596,340.695,303.476,345.783,308.864,347.586z"/>
			</g>
			<circle id="XMLID_2177_" style="fill:#ED4F4F;" cx="361.647" cy="334.701" r="16.393"/>
			<circle id="XMLID_2176_" style="fill:#DD1B1B;" cx="361.647" cy="334.701" r="13.594"/>
			<path id="XMLID_2175_" style="fill:#CC4A4A;" d="M354.783,334.701c0,5.658,2.865,10.646,7.225,13.59
				c0.448,0.304,0.912,0.586,1.391,0.844c0.952,0.514,1.959,0.936,3.013,1.253c-1.507,0.46-3.109,0.706-4.766,0.706
				c-9.054,0-16.393-7.339-16.393-16.393c0-0.142,0.002-0.282,0.006-0.424c0.002-0.092,0.004-0.186,0.01-0.278
				c0-0.014,0-0.028,0.002-0.044c0.002-0.062,0.006-0.126,0.01-0.188c0.482-8.62,7.627-15.46,16.365-15.46
				c1.657,0,3.259,0.246,4.766,0.706c-1.583,0.478-3.065,1.191-4.404,2.097C357.648,324.056,354.783,329.043,354.783,334.701z"/>
			<path id="XMLID_2174_" style="fill:#BC1B1B;" d="M362.008,348.291c-0.12,0.002-0.242,0.004-0.362,0.004
				c-7.507,0-13.594-6.085-13.594-13.594c0-7.507,6.087-13.594,13.594-13.594c0.12,0,0.242,0.002,0.362,0.004
				c-4.36,2.945-7.225,7.933-7.225,13.59S357.648,345.347,362.008,348.291z"/>
			<circle id="XMLID_2173_" style="fill:#03E277;" cx="331.659" cy="363.622" r="16.393"/>
			<circle id="XMLID_2172_" style="fill:#00B764;" cx="331.659" cy="363.622" r="13.594"/>
			<path id="XMLID_2171_" style="fill:#05CC68;" d="M324.796,363.622c0,5.658,2.865,10.646,7.225,13.59
				c0.448,0.304,0.912,0.586,1.391,0.844c0.952,0.514,1.959,0.936,3.013,1.253c-1.507,0.46-3.109,0.706-4.766,0.706
				c-9.054,0-16.393-7.339-16.393-16.393c0-0.142,0.002-0.282,0.006-0.424c0.002-0.092,0.004-0.186,0.01-0.278
				c0-0.014,0-0.028,0.002-0.044c0.002-0.062,0.006-0.126,0.01-0.188c0.482-8.62,7.627-15.459,16.365-15.459
				c1.657,0,3.259,0.246,4.766,0.706c-1.583,0.478-3.065,1.191-4.404,2.097C327.661,352.977,324.796,357.965,324.796,363.622z"/>
			<path id="XMLID_2170_" style="fill:#049E54;" d="M332.021,377.212c-0.12,0.002-0.242,0.004-0.362,0.004
				c-7.507,0-13.594-6.085-13.594-13.594c0-7.507,6.087-13.594,13.594-13.594c0.12,0,0.242,0.002,0.362,0.004
				c-4.36,2.945-7.225,7.933-7.225,13.59S327.661,374.268,332.021,377.212z"/>
			<path id="XMLID_2139_" style="fill:#32314B;" d="M245.12,380.015h-21.812c-1.106,0-2.003-0.897-2.003-2.003v-6.706
				c0-1.106,0.897-2.003,2.003-2.003h21.812c1.106,0,2.003,0.897,2.003,2.003v6.706C247.123,379.118,246.226,380.015,245.12,380.015
				z"/>
			<path id="XMLID_898_" style="fill:#32314B;" d="M282.289,380.015h-21.812c-1.106,0-2.003-0.897-2.003-2.003v-6.706
				c0-1.106,0.897-2.003,2.003-2.003h21.812c1.106,0,2.003,0.897,2.003,2.003v6.706
				C284.292,379.118,283.395,380.015,282.289,380.015z"/>
		</g>
		<g id="XMLID_841_">
			<path id="XMLID_871_" style="fill:#4B4C9B;" d="M332.564,220.133h52.799c4.671,0,8.458-3.787,8.458-8.458V61.42
				c0-4.671-3.787-8.463-8.458-8.463H173.98c0,0-0.002,0.002-0.002,0.003h-52.799c-4.671,0-8.458,3.787-8.458,8.458v150.256
				c0,4.671,3.787,8.463,8.458,8.463h211.382C332.562,220.135,332.563,220.134,332.564,220.133z"/>
			<path id="XMLID_867_" style="fill:#3E436D;" d="M368.661,155.744v-38.393c0-3.448,2.795-6.244,6.243-6.244l0,0
				c3.448,0,6.244,2.795,6.244,6.244v38.393c0,3.448-2.795,6.244-6.244,6.244l0,0C371.456,161.988,368.661,159.193,368.661,155.744z
				"/>
			<path id="XMLID_848_" style="fill:#3E436D;" d="M271.001,50.91v2.049h56.844V50.91c0-4.633-3.755-8.388-8.388-8.388h-40.068
				C274.756,42.522,271.001,46.278,271.001,50.91z"/>
			<path id="XMLID_847_" style="fill:#3E436D;" d="M327.845,224.827v-4.69H305.48v4.69c0,2.814,2.281,5.094,5.094,5.094h12.176
				C325.564,229.921,327.845,227.64,327.845,224.827z"/>
			<path id="XMLID_846_" style="fill:#3E436D;" d="M291.359,224.827v-4.69h-22.365v4.69c0,2.814,2.281,5.094,5.094,5.094h12.176
				C289.078,229.921,291.359,227.64,291.359,224.827z"/>
			
				<rect id="XMLID_845_" x="170.502" y="33.597" transform="matrix(4.489901e-11 1 -1 4.489901e-11 390.6383 -117.543)" style="fill:#32314B;" width="167.177" height="205.901"/>
			<path id="XMLID_844_" style="fill:#27273D;" d="M202.533,220.138h-51.394V52.958H357.04v52.728h-92.438
				c-34.28,0-62.069,27.789-62.069,62.069V220.138z"/>
			<circle id="XMLID_842_" style="fill:#3E436D;" cx="134.26" cy="136.222" r="13.546"/>
		</g>
	</g>
</g>
</svg>
